<svg height="800" viewBox="0 0 32 32" width="800" xmlns="http://www.w3.org/2000/svg"><path d="m0 0h8v2h2v2h2v8h4v2h2v-2h8v2h2v2h-2v14h-2v-10h-2v8h-2v-8h-2v-2h-6v2h-4v10h-2v-8h-2v-2h-2v-2h2v-4h2v-6h-2v2h-4v-4h2v-4h-2z" fill="#1a1a1a"/><path d="m0 0h24v32h-8v-2h2v-14h2v-2h-2v-2h-8v2h-2v-2h-4v-8h-2v-2h-2z" fill="#fff" transform="translate(8)"/><path d="m0 0h2v4h-2z" fill="#fff" transform="translate(0 2)"/><path d="m0 0h2v2h-2z" fill="#fff" transform="translate(4 4)"/><path d="m4 0h2v6h-2v4h-2v2h-2v-10h4z" fill="#fff" transform="translate(0 8)"/><path d="m0 0h2v12h-2z" fill="#1a1a1a" transform="translate(28 16)"/><path d="m6 0h6v2h2v8h-2v2h2v-2h2v-8h2v10h-2v2h-16v-2h2v-10h4z" fill="#fff" transform="translate(6 18)"/><path d="m0 0h2v4h-2z" fill="#1a1a1a" transform="translate(0 20)"/><path d="m2 0h2v2h2v8h-2v2h-4v-8h2z" fill="#fff" transform="translate(0 20)"/><g fill="#1a1a1a"><path d="m0 0h2v4h-2z" transform="translate(2 24)"/><path d="m0 0h2v2h-2z" transform="translate(18 28)"/><path d="m0 0h2v2h-2z" transform="translate(4 30)"/><path d="m0 0h2v2h-2z" transform="translate(22 30)"/></g></svg>